<?xml version="1.0" standalone="no"?>
<!DOCTYPE svg PUBLIC "-//W3C//DTD SVG 20010904//EN"
 "http://www.w3.org/TR/2001/REC-SVG-20010904/DTD/svg10.dtd">
<svg version="1.0" xmlns="http://www.w3.org/2000/svg"
 width="128.000000pt" height="128.000000pt" viewBox="0 0 128.000000 128.000000"
 preserveAspectRatio="xMidYMid meet">
<metadata>
Created by potrace 1.14, written by Peter Selinger 2001-2017
</metadata>
<g transform="translate(0.000000,128.000000) scale(0.100000,-0.100000)"
fill="#000000" stroke="none">
<path d="M203 983 c-23 -16 -62 -51 -87 -79 -25 -29 -57 -54 -70 -58 -14 -3
-29 -18 -36 -36 -10 -25 -10 -34 4 -55 38 -58 108 -37 198 60 76 82 97 84 136
18 38 -65 87 -118 122 -133 42 -17 121 -8 159 19 17 12 49 53 72 91 22 38 46
67 52 64 7 -2 34 -36 61 -75 56 -82 94 -109 154 -109 58 0 85 16 167 100 39
40 80 76 92 80 12 5 30 21 39 35 32 48 -21 106 -82 91 -16 -4 -67 -45 -114
-92 -48 -46 -93 -84 -101 -84 -8 0 -37 33 -64 73 -38 55 -61 78 -98 96 -84 42
-147 10 -222 -114 -45 -74 -64 -72 -118 12 -64 100 -95 123 -166 123 -47 0
-66 -5 -98 -27z"/>
<path d="M204 563 c-23 -15 -63 -51 -88 -79 -25 -29 -57 -54 -70 -58 -14 -3
-29 -18 -36 -36 -10 -25 -10 -34 4 -55 38 -58 118 -33 204 65 70 80 89 80 136
1 41 -66 94 -118 132 -127 41 -10 110 2 143 25 17 12 49 53 72 91 22 38 46 67
52 64 7 -2 34 -36 61 -75 56 -82 94 -109 154 -109 58 0 85 16 167 100 39 40
80 76 92 80 31 13 56 54 48 80 -4 11 -18 28 -31 37 -42 27 -88 5 -179 -87 -44
-44 -86 -80 -95 -80 -8 0 -38 33 -65 73 -38 54 -61 78 -97 95 -85 42 -147 13
-214 -103 -52 -88 -69 -88 -128 3 -65 100 -85 115 -159 120 -55 3 -67 1 -103
-25z"/>
</g>
</svg>
