<?xml version="1.0" standalone="no"?>
<!DOCTYPE svg PUBLIC "-//W3C//DTD SVG 20010904//EN"
 "http://www.w3.org/TR/2001/REC-SVG-20010904/DTD/svg10.dtd">
<svg version="1.0" xmlns="http://www.w3.org/2000/svg"
 width="128.000000pt" height="128.000000pt" viewBox="0 0 128.000000 128.000000"
 preserveAspectRatio="xMidYMid meet">
<metadata>
Created by potrace 1.14, written by Peter Selinger 2001-2017
</metadata>
<g transform="translate(0.000000,128.000000) scale(0.100000,-0.100000)"
fill="#000000" stroke="none">
<path d="M810 1147 c-56 -16 -105 -45 -144 -86 l-30 -31 -35 34 c-61 59 -122
81 -226 81 -109 -1 -176 -27 -255 -101 -135 -126 -152 -299 -43 -457 29 -42
80 -77 112 -77 27 0 71 42 71 69 0 11 -20 43 -45 72 -25 29 -50 71 -56 93 -25
93 17 180 111 229 48 25 64 28 120 25 78 -4 119 -29 153 -91 21 -41 22 -52 25
-394 l3 -352 26 -21 c32 -25 54 -25 86 0 l26 21 3 357 3 357 25 45 c73 130
274 119 358 -20 50 -84 41 -153 -33 -239 -50 -59 -54 -77 -24 -115 50 -63 141
-9 202 121 25 54 30 79 31 138 0 61 -4 81 -32 137 -41 84 -120 158 -200 188
-70 27 -171 34 -232 17z"/>
</g>
</svg>
