<?xml version="1.0" standalone="no"?>
<!DOCTYPE svg PUBLIC "-//W3C//DTD SVG 20010904//EN"
 "http://www.w3.org/TR/2001/REC-SVG-20010904/DTD/svg10.dtd">
<svg version="1.0" xmlns="http://www.w3.org/2000/svg"
 width="128.000000pt" height="128.000000pt" viewBox="0 0 128.000000 128.000000"
 preserveAspectRatio="xMidYMid meet">
<metadata>
Created by potrace 1.14, written by Peter Selinger 2001-2017
</metadata>
<g transform="translate(0.000000,128.000000) scale(0.100000,-0.100000)"
fill="#000000" stroke="none">
<path d="M532 1176 c-215 -57 -512 -241 -512 -317 0 -28 26 -75 45 -83 41 -15
73 -4 155 56 149 107 322 179 469 195 l61 6 -26 -57 c-78 -170 21 -369 202
-406 96 -20 193 9 261 77 115 115 117 290 5 406 -47 49 -71 61 -202 105 -95
32 -118 36 -235 39 -113 3 -142 0 -223 -21z m508 -221 c42 -21 60 -53 60 -103
0 -37 -6 -50 -34 -78 -29 -29 -41 -34 -81 -34 -40 0 -52 5 -81 34 -26 26 -34
42 -34 70 0 97 88 154 170 111z"/>
<path d="M218 706 c-124 -33 -213 -151 -212 -281 0 -73 29 -144 82 -198 47
-49 71 -61 202 -105 92 -31 120 -36 230 -39 110 -4 137 -1 223 21 218 56 517
239 517 317 0 28 -26 75 -45 83 -41 15 -73 4 -155 -56 -149 -107 -322 -179
-469 -195 l-61 -6 26 57 c76 166 -14 357 -188 403 -63 16 -88 16 -150 -1z
m158 -200 c26 -26 34 -42 34 -70 0 -96 -88 -153 -170 -111 -42 21 -60 53 -60
103 0 37 6 50 34 78 29 29 41 34 81 34 40 0 52 -5 81 -34z"/>
</g>
</svg>
