<?xml version="1.0" standalone="no"?>
<!DOCTYPE svg PUBLIC "-//W3C//DTD SVG 20010904//EN"
 "http://www.w3.org/TR/2001/REC-SVG-20010904/DTD/svg10.dtd">
<svg version="1.0" xmlns="http://www.w3.org/2000/svg"
 width="128.000000pt" height="128.000000pt" viewBox="0 0 128.000000 128.000000"
 preserveAspectRatio="xMidYMid meet">
<metadata>
Created by potrace 1.14, written by Peter Selinger 2001-2017
</metadata>
<g transform="translate(0.000000,128.000000) scale(0.100000,-0.100000)"
fill="#000000" stroke="none">
<path d="M115 1105 c-112 -40 -155 -204 -55 -213 38 -4 60 16 60 53 0 63 94
72 185 18 19 -11 20 -25 25 -274 l5 -263 26 -15 c24 -13 29 -13 53 2 l26 17 0
259 c0 296 -2 290 90 299 72 7 100 -14 100 -74 0 -66 25 -157 69 -249 21 -44
45 -108 53 -143 l15 -64 -49 -54 c-59 -64 -149 -112 -228 -121 -64 -7 -90 -25
-90 -64 0 -44 36 -63 102 -54 113 16 236 80 305 160 l37 42 50 -26 c40 -21 64
-26 116 -25 75 1 121 18 174 64 121 107 121 293 -2 400 -45 40 -119 70 -172
70 -55 0 -132 -31 -175 -71 l-43 -40 -20 63 c-11 35 -23 91 -26 126 -3 34 -12
76 -21 91 -44 86 -183 114 -302 61 -42 -18 -47 -19 -76 -3 -42 21 -124 43
-162 42 -16 0 -48 -6 -70 -14z m966 -397 c74 -41 99 -143 51 -207 -35 -48 -70
-66 -125 -66 -92 0 -155 70 -144 163 6 53 30 88 77 113 46 25 94 24 141 -3z"/>
</g>
</svg>
