<?xml version="1.0" standalone="no"?>
<!DOCTYPE svg PUBLIC "-//W3C//DTD SVG 20010904//EN"
 "http://www.w3.org/TR/2001/REC-SVG-20010904/DTD/svg10.dtd">
<svg version="1.0" xmlns="http://www.w3.org/2000/svg"
 width="128.000000pt" height="128.000000pt" viewBox="0 0 128.000000 128.000000"
 preserveAspectRatio="xMidYMid meet">
<metadata>
Created by potrace 1.14, written by Peter Selinger 2001-2017
</metadata>
<g transform="translate(0.000000,128.000000) scale(0.100000,-0.100000)"
fill="#000000" stroke="none">
<path d="M657 1269 c-78 -18 -162 -82 -209 -159 -25 -42 -56 -135 -68 -203
l-12 -65 -57 -11 c-144 -28 -240 -147 -241 -297 -1 -315 423 -412 567 -130 56
110 37 237 -49 331 -54 59 -56 73 -33 173 18 75 44 128 79 162 56 52 213 32
276 -35 28 -30 36 -94 21 -166 -16 -74 -98 -236 -172 -339 -87 -119 -109 -170
-109 -250 1 -103 53 -198 139 -248 87 -51 222 -31 322 49 125 99 134 293 14
293 -45 0 -85 -39 -85 -84 0 -36 -46 -91 -94 -114 -47 -22 -82 -8 -103 41 -27
66 -14 109 70 235 222 332 258 571 108 711 -60 56 -93 73 -188 98 -82 20 -116
22 -176 8z m-217 -627 c69 -50 75 -141 13 -199 -29 -28 -42 -33 -85 -33 -45 0
-54 4 -89 39 -33 33 -39 45 -39 81 0 108 115 173 200 112z"/>
</g>
</svg>
