<?xml version="1.0" standalone="no"?>
<!DOCTYPE svg PUBLIC "-//W3C//DTD SVG 20010904//EN"
 "http://www.w3.org/TR/2001/REC-SVG-20010904/DTD/svg10.dtd">
<svg version="1.0" xmlns="http://www.w3.org/2000/svg"
 width="128.000000pt" height="128.000000pt" viewBox="0 0 128.000000 128.000000"
 preserveAspectRatio="xMidYMid meet">
<metadata>
Created by potrace 1.14, written by Peter Selinger 2001-2017
</metadata>
<g transform="translate(0.000000,128.000000) scale(0.100000,-0.100000)"
fill="#000000" stroke="none">
<path d="M540 1006 c-140 -31 -225 -129 -252 -289 l-11 -67 -118 0 c-116 0
-118 0 -139 -27 -25 -32 -20 -69 12 -96 17 -15 42 -17 182 -17 149 0 164 2
184 20 18 17 22 32 22 78 0 66 22 161 46 198 29 43 90 67 170 67 149 -1 223
-87 224 -261 0 -43 5 -58 25 -77 24 -24 28 -25 183 -25 175 0 194 6 208 62 4
21 0 33 -20 52 -24 25 -30 26 -139 26 l-114 0 -12 66 c-30 163 -126 266 -275
293 -73 13 -105 13 -176 -3z"/>
<path d="M21 374 c-12 -15 -21 -30 -21 -35 0 -22 25 -58 47 -68 34 -16 1152
-15 1187 0 13 7 30 25 37 41 10 25 9 33 -8 56 l-20 27 -601 3 -600 2 -21 -26z"/>
</g>
</svg>
