<?xml version="1.0" standalone="no"?>
<!DOCTYPE svg PUBLIC "-//W3C//DTD SVG 20010904//EN"
 "http://www.w3.org/TR/2001/REC-SVG-20010904/DTD/svg10.dtd">
<svg version="1.0" xmlns="http://www.w3.org/2000/svg"
 width="128.000000pt" height="128.000000pt" viewBox="0 0 128.000000 128.000000"
 preserveAspectRatio="xMidYMid meet">
<metadata>
Created by potrace 1.14, written by Peter Selinger 2001-2017
</metadata>
<g transform="translate(0.000000,128.000000) scale(0.100000,-0.100000)"
fill="#000000" stroke="none">
<path d="M135 1198 c-39 -46 -29 -77 48 -152 39 -39 74 -85 94 -126 34 -69 63
-166 63 -210 l0 -25 -139 0 c-134 0 -141 -1 -165 -24 -34 -32 -40 -56 -25 -92
20 -49 52 -59 199 -59 150 0 144 5 111 -99 -29 -94 -80 -156 -156 -190 -52
-24 -69 -45 -69 -87 0 -46 37 -84 81 -84 73 0 189 82 250 177 33 52 77 173 88
246 l6 37 99 0 100 0 0 -28 c0 -45 28 -143 61 -210 75 -154 257 -267 327 -202
53 50 36 109 -43 152 -89 48 -149 136 -170 251 l-7 37 156 0 c175 0 204 8 225
59 15 36 9 60 -25 92 -25 23 -32 24 -190 27 -186 4 -175 -4 -149 97 25 99 78
196 140 254 30 28 59 60 65 71 29 54 -11 120 -74 120 -75 0 -207 -148 -265
-299 -26 -67 -46 -148 -53 -220 -3 -24 -4 -24 -98 -22 -52 1 -96 3 -97 4 -1 1
-11 47 -22 102 -25 123 -88 256 -161 337 -93 104 -156 124 -205 66z"/>
</g>
</svg>
