<?xml version="1.0" standalone="no"?>
<!DOCTYPE svg PUBLIC "-//W3C//DTD SVG 20010904//EN"
 "http://www.w3.org/TR/2001/REC-SVG-20010904/DTD/svg10.dtd">
<svg version="1.0" xmlns="http://www.w3.org/2000/svg"
 width="128.000000pt" height="128.000000pt" viewBox="0 0 128.000000 128.000000"
 preserveAspectRatio="xMidYMid meet">
<metadata>
Created by potrace 1.14, written by Peter Selinger 2001-2017
</metadata>
<g transform="translate(0.000000,128.000000) scale(0.100000,-0.100000)"
fill="#000000" stroke="none">
<path d="M735 1273 c-65 -16 -89 -103 -39 -142 24 -19 40 -21 163 -21 l136 0
-200 -200 -200 -201 -81 86 c-77 81 -92 90 -139 86 -30 -3 -65 -47 -65 -83 0
-25 15 -46 80 -112 44 -45 80 -86 80 -91 0 -5 -106 -116 -235 -245 -129 -130
-235 -244 -235 -253 0 -26 27 -74 45 -81 9 -3 31 -6 48 -6 27 0 60 29 264 232
l233 232 98 -97 c113 -110 133 -118 184 -67 46 46 35 74 -73 188 l-90 96 193
193 c106 106 196 193 200 193 5 0 8 -57 8 -126 0 -125 0 -126 29 -155 36 -36
70 -37 108 -5 l28 24 3 238 c2 171 0 246 -9 267 -21 51 -53 57 -296 56 -120
-1 -227 -3 -238 -6z"/>
</g>
</svg>
