<?xml version="1.0" standalone="no"?>
<!DOCTYPE svg PUBLIC "-//W3C//DTD SVG 20010904//EN"
 "http://www.w3.org/TR/2001/REC-SVG-20010904/DTD/svg10.dtd">
<svg version="1.0" xmlns="http://www.w3.org/2000/svg"
 width="128.000000pt" height="128.000000pt" viewBox="0 0 128.000000 128.000000"
 preserveAspectRatio="xMidYMid meet">
<metadata>
Created by potrace 1.14, written by Peter Selinger 2001-2017
</metadata>
<g transform="translate(0.000000,128.000000) scale(0.100000,-0.100000)"
fill="#000000" stroke="none">
<path d="M366 1096 l-48 -24 -41 19 c-70 31 -157 19 -210 -29 -27 -24 -55 -83
-63 -130 -5 -35 -3 -44 19 -66 48 -48 98 -23 111 52 9 61 65 83 106 42 19 -19
20 -33 20 -318 0 -334 1 -342 65 -342 64 0 65 7 65 347 0 290 1 304 20 323 26
26 72 26 96 -1 18 -20 19 -43 22 -327 2 -265 5 -309 19 -324 19 -22 62 -23 89
-4 18 14 19 31 22 327 2 272 5 316 19 331 20 22 51 23 81 2 22 -15 22 -19 22
-252 0 -130 5 -257 11 -282 16 -70 81 -126 167 -145 30 -6 32 -9 32 -51 0 -47
25 -84 58 -84 19 0 216 170 226 195 10 26 -9 50 -76 98 -154 109 -155 110
-188 77 -14 -14 -20 -33 -20 -65 0 -25 -2 -45 -5 -45 -16 0 -63 31 -69 45 -3
9 -6 131 -6 271 0 281 -2 292 -62 337 -72 53 -139 60 -217 21 -46 -23 -54 -25
-69 -12 -49 42 -129 48 -196 14z"/>
</g>
</svg>
