<?xml version="1.0" standalone="no"?>
<!DOCTYPE svg PUBLIC "-//W3C//DTD SVG 20010904//EN"
 "http://www.w3.org/TR/2001/REC-SVG-20010904/DTD/svg10.dtd">
<svg version="1.0" xmlns="http://www.w3.org/2000/svg"
 width="128.000000pt" height="128.000000pt" viewBox="0 0 128.000000 128.000000"
 preserveAspectRatio="xMidYMid meet">
<metadata>
Created by potrace 1.14, written by Peter Selinger 2001-2017
</metadata>
<g transform="translate(0.000000,128.000000) scale(0.100000,-0.100000)"
fill="#000000" stroke="none">
<path d="M50 1247 c-38 -19 -55 -61 -40 -98 15 -34 29 -44 85 -54 64 -11 152
-64 207 -124 78 -85 78 -87 14 -153 -118 -122 -162 -284 -121 -443 61 -232
291 -384 522 -345 234 39 393 228 393 464 0 136 -45 241 -145 335 -55 52 -56
53 -40 78 70 107 164 169 298 198 18 4 33 17 43 39 14 29 15 37 3 62 -32 66
-115 65 -250 -3 -75 -38 -184 -137 -229 -210 l-25 -40 -95 1 c-52 1 -107 -2
-121 -6 -24 -7 -30 -2 -64 50 -81 122 -204 214 -330 247 -71 18 -73 18 -105 2z
m724 -476 c69 -34 113 -78 147 -146 29 -60 31 -70 27 -147 -7 -130 -63 -214
-177 -266 -189 -88 -412 44 -429 254 -12 148 87 287 233 325 47 13 153 2 199
-20z"/>
</g>
</svg>
