<?xml version="1.0" standalone="no"?>
<!DOCTYPE svg PUBLIC "-//W3C//DTD SVG 20010904//EN"
 "http://www.w3.org/TR/2001/REC-SVG-20010904/DTD/svg10.dtd">
<svg version="1.0" xmlns="http://www.w3.org/2000/svg"
 width="128.000000pt" height="128.000000pt" viewBox="0 0 128.000000 128.000000"
 preserveAspectRatio="xMidYMid meet">
<metadata>
Created by potrace 1.14, written by Peter Selinger 2001-2017
</metadata>
<g transform="translate(0.000000,128.000000) scale(0.100000,-0.100000)"
fill="#000000" stroke="none">
<path d="M432 1185 c-24 -7 -52 -21 -62 -30 -16 -15 -21 -14 -61 7 -125 65
-269 -6 -299 -148 -18 -83 19 -136 85 -120 27 7 38 25 55 92 8 32 17 44 41 54
27 11 33 11 57 -7 15 -11 30 -31 33 -44 4 -13 7 -166 8 -340 1 -293 2 -317 19
-332 29 -26 77 -22 101 9 20 26 21 38 21 351 0 209 4 331 11 344 25 48 105 44
128 -7 7 -17 11 -130 11 -353 0 -305 1 -329 18 -344 25 -23 78 -21 102 3 19
19 20 33 20 351 0 214 4 337 11 350 25 48 109 39 123 -13 3 -13 6 -181 6 -374
l0 -351 -57 -26 c-32 -13 -75 -30 -96 -37 -64 -20 -76 -91 -22 -126 32 -21 86
-9 192 43 65 32 77 34 100 24 34 -15 181 -51 211 -51 29 0 72 42 72 70 0 36
-41 66 -108 79 -34 7 -62 14 -62 17 0 3 22 31 49 61 162 182 181 408 44 534
-50 46 -114 78 -155 79 -27 0 -28 2 -28 53 0 71 -33 135 -84 163 -76 42 -183
39 -249 -8 -26 -19 -29 -19 -47 -3 -19 17 -101 45 -129 44 -9 0 -35 -6 -59
-14z m616 -389 c92 -48 110 -146 48 -271 -19 -38 -48 -83 -65 -99 l-31 -30 0
207 c0 138 4 207 10 207 6 0 23 -6 38 -14z"/>
</g>
</svg>
